<?xml version="1.0" encoding="UTF-8" standalone="no"?>
<svg
   height="1992"
   viewBox="0 0 512 407.864"
   width="2500"
   version="1.1"
   id="svg4"
   sodipodi:docname="bootstrap.svg"
   inkscape:version="1.2.2 (b0a8486541, 2022-12-01)"
   xmlns:inkscape="http://www.inkscape.org/namespaces/inkscape"
   xmlns:sodipodi="http://sodipodi.sourceforge.net/DTD/sodipodi-0.dtd"
   xmlns="http://www.w3.org/2000/svg"
   xmlns:svg="http://www.w3.org/2000/svg">
  <defs
     id="defs8" />
  <sodipodi:namedview
     id="namedview6"
     pagecolor="#ffffff"
     bordercolor="#000000"
     borderopacity="0.25"
     inkscape:showpageshadow="2"
     inkscape:pageopacity="0.0"
     inkscape:pagecheckerboard="0"
     inkscape:deskcolor="#d1d1d1"
     showgrid="false"
     inkscape:zoom="0.1184739"
     inkscape:cx="1249.2203"
     inkscape:cy="996"
     inkscape:window-width="1280"
     inkscape:window-height="961"
     inkscape:window-x="-8"
     inkscape:window-y="-8"
     inkscape:window-maximized="1"
     inkscape:current-layer="svg4" />
  <path
     d="M106.344 0C77.13 0 55.513 25.57 56.481 53.3c.929 26.641-.278 61.145-8.964 89.283C38.8 170.8 24.068 188.681 0 190.976v25.912c24.068 2.3 38.8 20.172 47.516 48.393 8.687 28.138 9.893 62.642 8.964 89.283-.968 27.726 20.649 53.3 49.868 53.3h299.347c29.214 0 50.827-25.57 49.859-53.3-.929-26.641.278-61.145 8.964-89.283 8.717-28.221 23.413-46.1 47.482-48.393v-25.912c-24.068-2.3-38.764-20.172-47.482-48.393-8.687-28.134-9.893-62.642-8.964-89.283.968-27.726-20.645-53.3-49.859-53.3H106.34zm240.775 251.067c0 38.183-28.481 61.34-75.746 61.34h-80.458a8.678 8.678 0 0 1-8.678-8.678V104.136a8.678 8.678 0 0 1 8.678-8.678h80c39.411 0 65.276 21.348 65.276 54.124 0 23.005-17.4 43.6-39.567 47.208v1.2c30.176 3.31 50.495 24.21 50.495 53.077zm-84.519-128.1h-45.876v64.8h38.639c29.87 0 46.34-12.028 46.34-33.527-.003-20.148-14.163-31.273-39.103-31.273zm-45.876 90.511v71.411h47.564c31.1 0 47.573-12.479 47.573-35.931s-16.935-35.484-49.573-35.484h-45.564z"
     fill="#7952b3"
     fill-rule="evenodd"
     id="path2" />
  <path
     style="fill:#ffffff;stroke-width:8.44068"
     d="m 903.1481,1499.3982 c -11.47282,-17.5098 -12.77483,-79.935 -10.74543,-515.19215 2.00184,-429.3485 3.99436,-496.3331 14.97021,-503.2689 16.89189,-10.67423 466.57292,-10.22826 513.12072,0.50889 87.0469,20.07905 158.6202,71.99044 191.9558,139.2237 22.9085,46.20335 23.4119,163.27377 0.8968,208.56735 -23.6475,47.57136 -78.1516,97.40263 -124.5682,113.88834 -22.661,8.04846 -41.2017,17.08941 -41.2017,20.09101 0,3.0016 17.6028,9.8899 39.1174,15.30734 83.0822,20.92034 146.5312,70.87832 181.4601,142.87672 14.6893,30.2789 19.1238,54.5907 19.4978,106.8956 0.4293,60.0524 -2.6589,74.0872 -27.3292,124.1996 -30.5509,62.0578 -67.0717,97.3675 -132.5597,128.164 -71.8654,33.7955 -118.6439,38.6623 -371.6107,38.6623 H 916.20273 Z m 529.8865,-130.7623 c 62.6442,-30.847 85.4463,-67.0523 89.2135,-141.6538 2.7279,-54.0195 0.4559,-66.3363 -18.0667,-97.9428 -41.6818,-71.1246 -109.9198,-90.8359 -314.4613,-90.8359 h -138.8557 v 177.8764 177.8764 l 170.9237,-2.7323 c 159.4056,-2.5483 173.641,-4.0704 211.2465,-22.588 z m -80.238,-461.47115 c 80.559,-23.92346 121.3075,-74.99361 121.3075,-152.03481 0,-76.43218 -32.0518,-122.50598 -101.6433,-146.11011 -17.3127,-5.87214 -86.7742,-9.73169 -175.1441,-9.73169 H 1050.8644 V 759.66102 920.0339 h 129.2985 c 91.2857,0 142.0387,-3.78343 172.6337,-12.86915 z"
     id="path252"
     transform="matrix(0.2048,0,0,0.2048,0,-0.0488)" />
</svg>
