<?xml version="1.0" encoding="UTF-8" standalone="no"?>
<svg
   viewBox="0 0 639.48633 899.24316"
   version="1.1"
   id="svg926"
   sodipodi:docname="JavaScript.svg"
   inkscape:version="1.2.2 (b0a8486541, 2022-12-01)"
   width="639.48633"
   height="899.24316"
   xmlns:inkscape="http://www.inkscape.org/namespaces/inkscape"
   xmlns:sodipodi="http://sodipodi.sourceforge.net/DTD/sodipodi-0.dtd"
   xmlns="http://www.w3.org/2000/svg"
   xmlns:svg="http://www.w3.org/2000/svg">
  <defs
     id="defs930" />
  <sodipodi:namedview
     id="namedview928"
     pagecolor="#c0c0c0"
     bordercolor="#000000"
     borderopacity="0.25"
     inkscape:showpageshadow="true"
     inkscape:pageopacity="0"
     inkscape:pagecheckerboard="true"
     inkscape:deskcolor="#d1d1d1"
     showgrid="false"
     inkscape:zoom="0.52444444"
     inkscape:cx="390.88983"
     inkscape:cy="511.01695"
     inkscape:window-width="1280"
     inkscape:window-height="961"
     inkscape:window-x="-8"
     inkscape:window-y="-8"
     inkscape:window-maximized="1"
     inkscape:current-layer="svg926"
     showborder="true"
     borderlayer="true"
     shape-rendering="auto">
    <inkscape:grid
       type="xygrid"
       id="grid1301"
       originx="-130.57957"
       originy="-0.27" />
  </sodipodi:namedview>
  <path
     d="m 298.68043,19.27 0.01,60.23 0.02,20.73 -0.07,19.39 -8.13,-0.13 -21.09,0.03 -19.63,-0.01 h -20.49 l -14.59,-0.03 q -0.83,-9.48 -0.58,-19 l 0.05,-10.88 q 0.01,-1.86 1.86,-1.86 l 13.88,-0.05 20.07,-0.01 15.29,0.35 a 1.59,1.55 0.5 0 0 1.63,-1.56 l -0.02,-5.71 0.01,-20.91 -0.01,-19.12 -0.01,-21 0.08,-19.2 a 0.46,0.53 0 0 1 0.46,-0.53 l 30.81,0.04 a 0.52,0.57 0 0 1 0.52,0.57 z m 130,1.14 -0.05,11.07 -60.46,0.29 -19.95,-0.01 a 0.44,0.45 3.7 0 0 -0.44,0.39 q -0.41,2.95 0.18,6.08 l -0.01,6.7 a 0.62,0.62 0 0 0 0.5,0.61 c 2.39,0.45 5.53,-0.09 7.13,-0.08 q 36.25,0.09 72.54,-0.05 a 0.5,0.49 89.4 0 1 0.5,0.5 l 0.09,15.32 v 18.25 l -0.03,20.14 -0.07,19.3 a 0.49,0.5 0 0 1 -0.49,0.5 l -18.2,0.1 h -20.5 l -19.63,-0.01 -20.37,0.01 h -19.57 l -13.29,0.04 a 0.52,0.58 0 0 1 -0.52,-0.58 l 0.09,-30.75 a 0.52,0.52 0 0 1 0.52,-0.51 l 13.27,-0.03 h 17 l 49.48,0.19 a 0.75,0.41 0.6 0 0 0.76,-0.4 l -0.05,-13.07 a 0.72,0.45 0 0 0 -0.72,-0.45 l -67.22,-0.19 -12.43,-0.1 a 0.51,0.49 0 0 1 -0.51,-0.49 l -0.1,-10.45 0.03,-61.69 a 1.07,0.97 0 0 1 1.07,-0.97 l 110.94,0.01 a 0.47,0.49 0 0 1 0.47,0.49 z"
     id="path628" />
  <path
     fill="#e8c931"
     d="M 9.6704263,175.69 H 29.170426 l 20.65,0.01 19.35,-0.01 H 189.17043 l 20.54,0.01 19.46,-0.01 h 61 l 18.84,0.02 20.73,-0.01 19.43,-0.01 20.84,0.01 19.16,-0.01 h 40.25 l 20.59,0.01 19.16,-0.01 h 159.75 l 9.69,0.09 a 0.68,0.75 82.4 0 1 0.68,0.47 q 0.34,1.07 0.09,2.23 l -1.76,20.54 -1.66,20.96 -1.75,19.5 -1.75,20.25 -1.72,19.49 -1.9,20.83 -1.5,19.41 -3.63,41.27 -1.72,18.16 -1.78,19.94 -1.75,20.9 -1.58,20 -1.92,20.25 -1.64,19.96 -1.63,18.72 -1.73,21.32 -1.75,20 c -0.4,6.62 -0.76,12.78 -1.63,19.72 q -1.25,10.11 -1.87,20.28 l -1.75,19.5 -1.75,21 -1.59,18.29 -1.91,20.71 -1.54,19.96 -1.8,20.16 -1.66,19.88 -1.83,20.5 -1.67,19.75 -5.81,65.44 a 0.73,0.73 0 0 1 -0.52,0.64 l -13.96,4.21 -39.75,11.17 -19.79,5.54 -20.46,5.71 -40,11.08 -19.54,5.71 -40.61,11.32 -20.1,5.47 -19.79,5.71 q -9.87,2.24 -19.46,5.46 c -4.17,1.19 -8.53,2.84 -12.89,1.63 q -23.14,-6.4 -46.42,-12.96 l -19.75,-5.43 -40.76,-11.56 -19.64,-5.39 -39.29,-11.04 -21.21,-5.96 -18.79,-5.38 -40.250004,-11.08 -13.36,-3.82 a 1.56,1.59 4.8 0 1 -1.13,-1.36 l -0.55,-5.11 -1.67,-20.25 -3.58,-40.25 -1.5,-19.5 -1.71,-19.6 -1.79,-20.9 -1.96,-19.79 -1.6,-20.06 -1.7,-19.51 -1.74,-19.89 -1.75,-20.25 -1.75,-18.75 c -0.83,-13.59 -2.28,-27.11 -3.25,-40.69 l -1.92,-20.96 -1.83,-19.6 -1.5,-20 -2,-21 -1.5,-19 -1.75,-20 -1.78,-20.43 -1.67,-19.19 -1.8,-20.13 -4.25,-51.5 -1,-8.75 -1.7499997,-20.08 -1.75,-20.31 -1.75,-19.86 -1.5,-19.75 -1.75,-20 L 0.13042631,179.48 4.2631178e-4,176.3 A 0.49,0.47 88.8 0 1 0.47042631,175.79 Z M 571.03043,289.11 c 1.88,-18.67 3.03,-37.31 5.2,-56.02 a 0.83,0.94 3.9 0 0 -0.81,-1.05 l -254.94,-0.01 a 0.56,0.51 0 0 0 -0.56,0.51 l -0.01,609.69 a 0.86,0.79 83 0 0 1,0.85 q 64.82,-17.77 129.44,-35.35 c 25.37,-6.9 50.78,-13.43 76.02,-20.82 a 0.85,0.85 0 0 0 0.61,-0.73 q 2.65,-27.81 5.11,-55.69 16.48,-186.55 32.86,-373.12 c 2,-22.72 3.79,-45.57 6.08,-68.26 z m -300.86,20.41 h -41 l -3.58,0.14 a 0.6,0.49 88.5 0 0 -0.47,0.61 c 0.66,25.9 -0.1,51.28 0.23,76.9 q 0.21,17.12 0.18,34.25 c -0.14,81.31 0.14,162.68 -0.49,243.94 a 0.63,0.64 7.4 0 1 -0.79,0.62 l -13.58,-3.54 -40.46,-10.96 -20.19,-5.57 -19.46,-5.24 -27.37,-7.57 a 1.05,1.09 7 0 0 -1.33,1.08 l 0.1,6.13 v 18.67 l 0.25,21.25 -0.25,20 v 5.19 a 0.88,0.83 15.3 0 0 0.45,0.74 q 2.67,1.47 5.76,1.78 l 20.5,5.5 19.75,5.42 40.25,10.83 20.48,5.6 19.91,5.44 q 0.82,0.44 2.11,0.54 l 17.75,4.92 20,5.5 19.85,5.47 5.47,1.55 a 0.4,0.42 7.4 0 0 0.51,-0.41 l 0.13,-17.57 c 1.01,-11.71 -0.12,-24.67 -0.25,-36.5 l 0.25,-3.75 -0.17,-21.5 v -17.75 q 0.67,-11.12 0,-22.25 l 0.11,-17.8 q 0.57,-11.04 -0.11,-22.2 l 0.17,-18.5 q 0.4,-10.78 -0.21,-21.54 l 0.21,-18.46 q 0.48,-10.76 -0.17,-21.5 l 0.1,-17.54 q 0.72,-11.2 -0.14,-22.5 l 0.21,-18.21 -0.11,-21.67 0.03,-17.63 q 0.88,-11.16 -0.09,-22.45 l 0.1,-17.8 q 0.61,-11.06 -0.14,-22.24 l 0.19,-17.47 -0.04,-31.6 a 0.52,0.5 0 0 0 -0.52,-0.5 z"
     id="path658" />
  <path
     fill="#ffdd23"
     d="m 576.23043,233.09 c -2.17,18.71 -3.32,37.35 -5.2,56.02 -2.29,22.69 -4.08,45.54 -6.08,68.26 q -16.38,186.57 -32.86,373.12 -2.46,27.88 -5.11,55.69 a 0.85,0.85 0 0 1 -0.61,0.73 c -25.24,7.39 -50.65,13.92 -76.02,20.82 q -64.62,17.58 -129.44,35.35 a 0.86,0.79 83 0 1 -1,-0.85 l 0.01,-609.69 a 0.56,0.51 0 0 1 0.56,-0.51 l 254.94,0.01 a 0.83,0.94 3.9 0 1 0.81,1.05 z m -206.56,346.1 19.75,-3 20.25,-3.25 19.25,-3 21,-3.5 7.94,-0.85 a 0.41,0.42 89.4 0 1 0.46,0.44 l -1.11,13.45 -2.25,21.5 -2,17.65 -2.25,21.1 -1.93,15.82 a 0.78,0.74 85.6 0 1 -0.53,0.65 l -20.33,5.99 -18.96,5.31 -20.04,5.52 -41,11.5 -2.56,0.72 a 0.8,0.64 84.5 0 0 -0.48,0.73 l -0.17,13.51 c 0.49,14.26 -0.36,22.44 -0.12,36.06 q 0.21,11.35 -0.28,22.7 a 0.43,0.41 83.2 0 0 0.52,0.43 l 4.34,-1.23 20.43,-5.63 20.86,-5.83 q 19.75,-4.88 39.21,-10.79 l 21,-5.75 38.75,-10.67 19.21,-5.45 a 0.76,0.74 85 0 0 0.53,-0.65 l 1.47,-13.19 3.5,-39.25 1.83,-19.75 1.92,-20 2,-20.75 1.74,-19.68 1.84,-20.57 q 1.37,-9.58 1.67,-19.25 l 1.87,-19.67 1.94,-20.44 1.15,-14.33 a 0.41,0.42 87.8 0 0 -0.48,-0.44 l -20.69,3.17 -19.75,2.92 -40.18,6.1 -19.86,2.94 q -6.37,0.76 -12.71,1.75 -2.8,0.44 -1.92,-2.73 -0.26,-17.07 -0.27,-34.11 c -0.01,-6.03 0.91,-16.83 -0.1,-25.41 v -20.5 c 1.37,-13.17 -0.6,-24.68 0.62,-39.4 a 0.55,0.55 0 0 1 0.54,-0.51 l 14.38,-0.13 16.5,-0.17 23.12,0.14 20.13,-0.22 19.86,0.24 20.64,0.01 q 4.11,0.47 8.07,-0.52 a 0.69,0.71 85.3 0 0 0.54,-0.62 l 1.6,-18.32 1.83,-20.25 1.92,-19.75 0.69,-9.95 a 0.47,0.45 2.2 0 0 -0.47,-0.49 l -14.68,-0.02 h -19.25 l -20.95,-0.02 -19.05,0.02 h -121 l -4.11,-0.01 a 0.66,0.69 0 0 0 -0.67,0.7 q 0.32,19.77 0.47,39.52 c 0.07,8.28 -0.75,22.43 0.09,33.75 0.71,9.53 -0.64,23.82 -0.15,36.37 0.53,13.78 -0.7,27.24 0.03,41.19 q 0.51,9.9 -0.2,23.45 c -0.48,9.34 0.68,21.47 0.18,32.84 q -0.36,8.2 -0.23,14.31 0.56,25.52 -0.09,51.04 a 0.49,0.51 85.6 0 0 0.59,0.49 z"
     id="path670" />
  <path
     fill="#ffffff"
     d="m 229.17043,309.52 -0.25,6.84 q -0.12,3.28 3.07,3.31 l 17.19,0.11 a 0.42,0.62 2.8 0 1 0.4,0.65 q -0.6,9.66 0.3,19.43 l -0.25,0.87 -0.26,-0.52 a 0.77,0.78 77.3 0 0 -0.7,-0.44 l -19.01,0.13 a 0.51,0.49 89.4 0 0 -0.49,0.52 q 0.05,5.35 -0.3,15.58 -0.13,3.79 3.42,3.7 c 5.36,-0.14 10.58,0.14 15.62,-0.11 a 1.43,1.43 0 0 1 1.51,1.43 c 0,2.35 -0.33,18.4 0.5,18.75 l -0.5,0.25 q -9.15,-0.61 -18.91,-0.13 a 1.57,1.57 0 0 0 -1.49,1.59 q 0.08,5.65 -0.06,11.82 c -0.09,3.68 -0.75,6.24 3.7,6.37 q 8.09,0.23 15.26,-0.08 a 1.44,1.44 0 0 1 1.5,1.44 c 0,2.35 -0.33,18.39 0.5,18.74 l -0.5,0.25 q -9.99,-0.64 -20.01,-0.09 a 0.51,0.51 0 0 0 -0.48,0.53 q 0.42,11.36 -0.03,14.53 -0.64,4.55 4,4.68 7.97,0.22 15.12,-0.08 a 1.34,1.27 88.5 0 1 1.33,1.33 l 0.05,18.31 a 0.48,0.5 0 0 1 -0.48,0.5 h -16.5 q -0.79,0 -0.93,0.06 -1.74,0.8 -2.36,-0.76 a 0.99,0.23 69.5 0 0 -0.5,-0.76 q -0.6,-0.04 0.08,1.06 0.27,0.45 0.29,0.92 0.31,7.99 0,15.99 -0.13,3.3 3.42,3.41 8.2,0.26 15.26,-0.05 a 1.89,1.62 88.9 0 1 1.7,1.9 l 0.03,17.73 a 0.6,0.75 89.5 0 0 0.76,0.6 l 18.75,-0.21 a 0.45,0.63 0 0 0 0.45,-0.63 l 0.05,-19.26 18.34,0.04 a 1.66,1.7 0 0 1 1.66,1.7 v 16.75 a 0.57,0.55 89 0 0 0.57,0.57 q 3.19,-0.08 4.82,2.65 l -0.1,17.54 q -2,0.97 -4.44,0.62 a 0.66,0.62 3.8 0 1 -0.57,-0.61 l -0.43,-18.45 a 0.8,0.59 89.2 0 0 -0.6,-0.79 l -18.75,0.15 a 0.6,0.48 89.5 0 0 -0.47,0.6 l -0.03,19.23 -17.98,-0.01 q -2.02,0 -2.01,-1.97 l 0.09,-17.07 a 0.85,0.91 0.3 0 0 -0.85,-0.92 l -18.25,0.1 a 1.37,1.37 0 0 0 -1.36,1.44 q 0.36,7.07 0.04,15.19 -0.12,3.06 3.07,3.16 8.34,0.26 15.74,-0.06 a 1.44,1.44 0 0 1 1.51,1.44 c 0,2.35 -0.33,18.39 0.5,18.74 l -0.5,0.25 q -9.97,-0.68 -19.94,-0.04 a 0.51,0.5 86.6 0 0 -0.47,0.54 q 0.38,7.38 -0.01,14.8 c -0.2,3.85 0.76,4.19 4.31,4.32 q 7.73,0.29 14.6,-0.05 a 1.43,1.43 0 0 1 1.51,1.43 c 0,2.35 -0.33,18.4 0.5,18.75 l -0.5,0.25 q -10.02,-0.64 -19.97,-0.1 a 0.57,0.45 89 0 0 -0.43,0.56 l -0.15,15.75 q -0.03,3.35 3.04,3.35 l 16.02,0.01 a 1.34,1.42 89.8 0 1 1.42,1.33 l 0.05,18.31 a 0.48,0.52 0 0 1 -0.48,0.52 l -17.68,0.04 q -2.09,0.01 -2.09,1.92 l 0.01,16.77 a 1.02,1.08 0.3 0 0 1.01,1.08 l 17.58,0.07 a 1.55,1.7 89.7 0 1 1.69,1.52 l 0.27,18.6 -0.08,1.23 -0.29,-0.78 a 0.69,0.72 80.1 0 0 -0.67,-0.45 l -17.31,0.07 a 1.95,1.65 0 0 0 -1.95,1.65 l 0.01,17.76 a 0.5,0.48 0 0 0 0.5,0.48 l 18.82,-0.07 a 0.91,0.64 89.6 0 1 0.64,0.9 l 0.2,18.75 a 0.59,0.42 0 0 0 0.59,0.42 l 18.43,-0.15 a 0.82,0.92 0 0 1 0.82,0.92 v 18.75 a 0.5,0.54 0 0 0 0.5,0.54 l 18.75,0.21 a 0.76,0.75 0.4 0 1 0.75,0.75 v 17.75 a 0.65,0.42 5.7 0 0 0.57,0.45 q 2.74,0.38 4.89,1.8 l -0.13,17.57 a 0.4,0.42 7.4 0 1 -0.51,0.41 l -5.47,-1.55 q 0.91,-8.35 0.56,-16.87 a 0.59,0.66 88.6 0 0 -0.66,-0.56 l -18.01,-0.01 a 1.35,1.35 0 0 0 -1.34,1.49 q 0.51,5.29 -0.4,10.48 l -20,-5.5 q -0.39,-2.3 0.47,-4.49 a 1.4,1.4 0 0 0 -1.28,-1.92 c -4.74,-0.09 -13.1,-1.95 -16.94,1.49 q -1.29,-0.1 -2.11,-0.54 l 0.33,-19.84 a 0.95,1.13 0.3 0 0 -0.96,-1.15 l -18.32,0.03 a 0.41,0.66 1.3 0 0 -0.42,0.64 l -0.54,14.88 -20.48,-5.6 q 1.07,-4.55 0.46,-9.38 a 0.66,0.43 84.5 0 0 -0.46,-0.58 l -19,-0.09 a 0.57,0.4 0.5 0 1 -0.57,-0.41 l 0.3,-18.5 a 0.98,0.98 0 0 0 -0.98,-0.99 l -18.5,0.06 a 0.6,0.46 88.3 0 0 -0.45,0.63 q 0.51,9.14 -1.05,18.43 l -19.75,-5.42 q 1.24,-6.52 0.55,-13.19 a 0.58,0.55 87.1 0 0 -0.55,-0.52 l -17.27,-0.02 q -2.41,0 -2.03,2.5 0.49,3.14 -1.2,5.73 -3.09,-0.31 -5.76,-1.78 a 0.88,0.83 15.3 0 1 -0.45,-0.74 v -5.19 l 6.09,-0.69 a 1.29,1.53 86.1 0 0 1.35,-1.31 v -17.94 a 0.66,0.67 87.6 0 0 -0.73,-0.66 l -6.46,0.6 -0.25,-21.25 q 3.24,1.24 6.7,0.57 a 0.55,0.65 83.5 0 0 0.54,-0.57 l -0.14,-17.99 a 0.88,0.86 13.2 0 0 -0.5,-0.78 q -3.2,-1.54 -6.6,0.1 l -0.1,-6.13 a 1.05,1.09 7 0 1 1.33,-1.08 l 27.37,7.57 q -1.9,9.15 -1.12,18.31 a 0.67,0.48 87.3 0 0 0.48,0.61 l 18.75,0.11 a 0.5,0.7 2.3 0 0 0.51,-0.66 l 0.84,-13.13 20.19,5.57 -0.85,6.41 a 1.37,1.39 4.9 0 0 1.31,1.58 l 16.93,0.58 q 1.97,0.07 1.96,1.92 l -0.1,17.26 a 0.46,0.49 0.6 0 0 0.46,0.5 l 18.25,0.01 a 1.26,1.27 0.2 0 0 1.26,-1.26 l 0.11,-15.25 a 0.76,0.52 88.5 0 1 0.48,-0.74 l 0.65,-0.05 13.58,3.54 a 0.63,0.64 7.4 0 0 0.79,-0.62 c 0.63,-81.26 0.35,-162.63 0.49,-243.94 q 0.03,-17.13 -0.18,-34.25 c -0.33,-25.62 0.43,-51 -0.23,-76.9 a 0.6,0.49 88.5 0 1 0.47,-0.61 z m -79.75,370.21 19.11,-0.09 a 0.58,0.42 0.5 0 0 0.58,-0.41 l 0.27,-18.94 a 0.46,0.56 0 0 0 -0.46,-0.56 l -18.69,0.02 a 0.63,0.6 0 0 0 -0.63,0.6 l -0.18,19.38 -18.23,-0.01 a 1.81,1.74 0 0 1 -1.8,-1.73 l -0.07,-17.76 a 0.49,0.64 89.4 0 0 -0.65,-0.49 l -18.44,0.01 a 0.74,0.74 0 0 0 -0.74,0.73 l -0.16,17.25 a 1.59,1.81 0.3 0 0 1.58,1.82 h 17.52 a 0.95,1.25 0 0 1 0.95,1.25 l 0.03,18.18 a 0.5,0.68 0 0 0 0.5,0.68 l 18.76,0.05 a 0.62,0.67 0.5 0 0 0.62,-0.66 z m 40.016,0.697 a 0.68,0.68 0 0 0 -0.679,-0.68 l -18.64,-0.033 a 0.68,0.68 0 0 0 -0.68,0.679 l -0.033,18.64 a 0.68,0.68 0 0 0 0.679,0.68 l 18.64,0.033 a 0.68,0.68 0 0 0 0.68,-0.679 z m 40.005,0.358 a 0.98,0.98 0 0 0 -0.976,-0.983 l -18,-0.063 a 0.98,0.98 0 0 0 -0.983,0.976 l -0.064,18.06 a 0.98,0.98 0 0 0 0.977,0.984 l 18,0.062 a 0.98,0.98 0 0 0 0.983,-0.976 z m -20.01,19.93 a 0.95,0.95 0 0 0 -0.946,-0.953 l -18.08,-0.064 a 0.95,0.95 0 0 0 -0.953,0.947 l -0.063,18.08 a 0.95,0.95 0 0 0 0.946,0.953 l 18.08,0.063 a 0.95,0.95 0 0 0 0.953,-0.946 l 0.064,-18.08 z m 39.903,-0.302 a 0.7,0.7 0 0 0 -0.702,-0.7 l -18.54,0.033 a 0.7,0.7 0 0 0 -0.698,0.701 l 0.032,18.6 a 0.7,0.7 0 0 0 0.702,0.7 l 18.54,-0.033 a 0.7,0.7 0 0 0 0.698,-0.701 z m 20.084,20.19 a 0.85,0.85 0 0 0 -0.846,-0.855 l -18.24,-0.096 a 0.85,0.85 0 0 0 -0.854,0.846 l -0.096,18.3 a 0.85,0.85 0 0 0 0.846,0.854 l 18.24,0.096 a 0.85,0.85 0 0 0 0.854,-0.846 l 0.096,-18.3 z"
     id="path690" />
  <path
     style="fill:#ffffff;stroke-width:1.90678"
     d="m 258.40348,748.00276 c -41.7984,-11.63077 -106.4858,-29.2762 -142.05508,-38.74979 l -12.39407,-3.30105 -0.51877,-35.63215 c -0.36966,-25.39043 0.0966,-35.63214 1.62224,-35.63214 1.17756,0 10.84957,2.47456 21.49335,5.499 35.32752,10.03839 77.75637,21.59737 88.11419,24.00513 l 10.21973,2.37566 0.6353,-38.34456 c 0.34942,-21.08951 0.59763,-101.19695 0.55158,-178.01654 l -0.0837,-139.67199 33.84534,3.8e-4 33.84533,3.7e-4 v 223.09323 c 0,177.26459 -0.48962,223.06965 -2.38347,222.97847 -1.31091,-0.0631 -16.11229,-3.93493 -32.89195,-8.60402 z"
     id="path1228" />
  <path
     style="fill:#ffffff;stroke-width:1.90678"
     d="m 345.16196,721.58141 v -35.14012 l 10.01059,-2.90338 c 12.69393,-3.68161 78.21659,-22.0074 87.71186,-24.53181 3.93274,-1.04554 7.15043,-2.91704 7.15043,-4.15887 0,-1.24185 2.16801,-21.85082 4.81779,-45.79774 2.64979,-23.9469 4.53372,-43.8239 4.18651,-44.17111 -0.3472,-0.3472 -24.86378,3.20513 -54.48128,7.89407 -29.6175,4.68894 -55.09783,8.52535 -56.62295,8.52535 -2.40005,0 -2.77295,-18.20601 -2.77295,-135.38136 V 310.53508 h 99.15254 c 78.05436,0 99.15113,0.50717 99.14596,2.38348 -0.0191,6.91816 -5.9767,63.23664 -6.83658,64.62798 -0.55497,0.89793 -28.41601,1.63261 -61.91344,1.63261 h -60.90442 v 61.97034 c 0,57.78743 0.22524,61.96338 3.33687,61.86732 1.83527,-0.0566 27.36229,-3.74747 56.72669,-8.20181 l 53.38983,-8.0988 0.56525,4.90914 c 0.52504,4.55993 -1.68807,30.20452 -13.97972,161.99152 -2.58496,27.71512 -4.69993,52.25556 -4.69993,54.53432 0,3.75896 -3.40421,5.08227 -36.70551,14.26835 -108.7649,30.00261 -124.53686,34.3015 -125.84746,34.30173 -0.78655,1.5e-4 -1.43008,-15.81279 -1.43008,-35.13985 z"
     id="path1230" />
</svg>
