<?xml version="1.0" encoding="UTF-8" standalone="no"?>
<!-- Generator: Adobe Illustrator 23.0.1, SVG Export Plug-In . SVG Version: 6.00 Build 0)  -->

<svg
   version="1.1"
   id="Layer_1"
   x="0px"
   y="0px"
   viewBox="0 0 650.77203 189.60001"
   xml:space="preserve"
   sodipodi:docname="laravel-logolockup-cmyk-red.svg"
   width="650.77203"
   height="189.60001"
   inkscape:version="1.2.2 (b0a8486541, 2022-12-01)"
   xmlns:inkscape="http://www.inkscape.org/namespaces/inkscape"
   xmlns:sodipodi="http://sodipodi.sourceforge.net/DTD/sodipodi-0.dtd"
   xmlns="http://www.w3.org/2000/svg"
   xmlns:svg="http://www.w3.org/2000/svg"><defs
   id="defs342" /><sodipodi:namedview
   id="namedview340"
   pagecolor="#ffffff"
   bordercolor="#000000"
   borderopacity="0.25"
   inkscape:showpageshadow="2"
   inkscape:pageopacity="0.0"
   inkscape:pagecheckerboard="0"
   inkscape:deskcolor="#d1d1d1"
   showgrid="false"
   inkscape:zoom="0.68405797"
   inkscape:cx="324.5339"
   inkscape:cy="95.021186"
   inkscape:window-width="1280"
   inkscape:window-height="961"
   inkscape:window-x="-8"
   inkscape:window-y="-8"
   inkscape:window-maximized="1"
   inkscape:current-layer="Layer_1" />
<g
   id="g337"
   transform="translate(-141.615,-77.7)">
	<g
   id="g333">
		<polygon
   style="fill:#ef3b2d"
   points="373.181,221.606 420.575,221.606 420.575,206.858 389.647,206.858 389.647,121.376 373.181,121.376 "
   id="polygon319" />
		<path
   style="fill:#ef3b2d"
   d="m 478.706,163.902 c -2.101,-3.341 -5.083,-5.965 -8.949,-7.875 -3.865,-1.909 -7.756,-2.864 -11.669,-2.864 -5.062,0 -9.69,0.931 -13.89,2.792 -4.201,1.861 -7.804,4.417 -10.811,7.661 -3.007,3.246 -5.347,6.993 -7.016,11.239 -1.672,4.249 -2.506,8.713 -2.506,13.389 0,4.774 0.834,9.26 2.506,13.459 1.669,4.202 4.009,7.925 7.016,11.169 3.007,3.246 6.609,5.799 10.811,7.66 4.199,1.861 8.828,2.792 13.89,2.792 3.913,0 7.804,-0.955 11.669,-2.863 3.866,-1.908 6.849,-4.533 8.949,-7.875 v 9.021 h 15.607 v -66.725 h -15.607 z m -1.431,32.503 c -0.955,2.578 -2.291,4.821 -4.009,6.73 -1.719,1.91 -3.795,3.437 -6.229,4.582 -2.435,1.146 -5.133,1.718 -8.091,1.718 -2.96,0 -5.633,-0.572 -8.019,-1.718 -2.387,-1.146 -4.438,-2.672 -6.156,-4.582 -1.719,-1.909 -3.032,-4.152 -3.938,-6.73 -0.909,-2.577 -1.36,-5.298 -1.36,-8.161 0,-2.864 0.451,-5.585 1.36,-8.162 0.905,-2.577 2.219,-4.819 3.938,-6.729 1.718,-1.908 3.77,-3.437 6.156,-4.582 2.386,-1.146 5.059,-1.718 8.019,-1.718 2.958,0 5.656,0.572 8.091,1.718 2.434,1.146 4.51,2.674 6.229,4.582 1.718,1.91 3.054,4.152 4.009,6.729 0.953,2.577 1.432,5.298 1.432,8.162 -10e-4,2.863 -0.479,5.584 -1.432,8.161 z"
   id="path321" />
		<path
   style="fill:#ef3b2d"
   d="m 605.569,163.902 c -2.101,-3.341 -5.083,-5.965 -8.949,-7.875 -3.865,-1.909 -7.756,-2.864 -11.669,-2.864 -5.062,0 -9.69,0.931 -13.89,2.792 -4.201,1.861 -7.804,4.417 -10.811,7.661 -3.007,3.246 -5.347,6.993 -7.016,11.239 -1.672,4.249 -2.506,8.713 -2.506,13.389 0,4.774 0.834,9.26 2.506,13.459 1.669,4.202 4.009,7.925 7.016,11.169 3.007,3.246 6.609,5.799 10.811,7.66 4.199,1.861 8.828,2.792 13.89,2.792 3.913,0 7.804,-0.955 11.669,-2.863 3.866,-1.908 6.849,-4.533 8.949,-7.875 v 9.021 h 15.607 v -66.725 h -15.607 z m -1.432,32.503 c -0.955,2.578 -2.291,4.821 -4.009,6.73 -1.719,1.91 -3.795,3.437 -6.229,4.582 -2.435,1.146 -5.133,1.718 -8.091,1.718 -2.96,0 -5.633,-0.572 -8.019,-1.718 -2.387,-1.146 -4.438,-2.672 -6.156,-4.582 -1.719,-1.909 -3.032,-4.152 -3.938,-6.73 -0.909,-2.577 -1.36,-5.298 -1.36,-8.161 0,-2.864 0.451,-5.585 1.36,-8.162 0.905,-2.577 2.219,-4.819 3.938,-6.729 1.718,-1.908 3.77,-3.437 6.156,-4.582 2.386,-1.146 5.059,-1.718 8.019,-1.718 2.958,0 5.656,0.572 8.091,1.718 2.434,1.146 4.51,2.674 6.229,4.582 1.718,1.91 3.054,4.152 4.009,6.729 0.953,2.577 1.432,5.298 1.432,8.162 0,2.863 -0.479,5.584 -1.432,8.161 z"
   id="path323" />
		<rect
   x="776.78101"
   y="121.376"
   style="fill:#ef3b2d"
   width="15.606"
   height="100.23"
   id="rect325" />
		<polygon
   style="fill:#ef3b2d"
   points="522.235,170.238 549.011,170.238 549.011,154.882 506.628,154.882 506.628,221.606 522.235,221.606 "
   id="polygon327" />
		<polygon
   style="fill:#ef3b2d"
   points="644.516,154.882 628.708,154.882 654.325,221.606 673.939,221.606 699.556,154.882 683.748,154.882 664.132,205.978 "
   id="polygon329" />
		<path
   style="fill:#ef3b2d"
   d="m 733.595,153.166 c -19.112,0 -34.239,15.706 -34.239,35.079 0,21.416 14.641,35.079 36.239,35.079 12.088,0 19.806,-4.622 29.234,-14.688 l -10.544,-8.158 c -0.006,0.008 -7.958,10.449 -19.832,10.449 -13.802,0 -19.612,-11.127 -19.612,-16.884 h 51.777 C 769.338,172 754.846,153.166 733.595,153.166 Z m -18.713,29.28 c 0.12,-1.284 1.917,-16.884 18.589,-16.884 16.671,0 18.697,15.598 18.813,16.884 z"
   id="path331" />
	</g>
	<path
   style="fill:#ef3b2d"
   d="m 325.683,120.592 c -0.024,-0.088 -0.073,-0.165 -0.104,-0.25 -0.058,-0.157 -0.108,-0.316 -0.191,-0.46 -0.056,-0.097 -0.137,-0.176 -0.203,-0.265 -0.087,-0.117 -0.161,-0.242 -0.265,-0.345 -0.085,-0.086 -0.194,-0.148 -0.29,-0.223 -0.109,-0.085 -0.206,-0.182 -0.327,-0.252 0,0 -10e-4,0 -0.002,-10e-4 -10e-4,0 -10e-4,-0.001 -0.002,-0.002 L 288.651,98.27 c -0.917,-0.528 -2.047,-0.528 -2.964,0 l -35.647,20.522 c -0.001,0 -0.001,0.001 -0.002,0.002 -0.001,0 -0.002,0 -0.002,0.001 -0.121,0.07 -0.219,0.167 -0.327,0.252 -0.096,0.075 -0.205,0.138 -0.29,0.223 -0.103,0.103 -0.178,0.228 -0.265,0.345 -0.066,0.089 -0.147,0.169 -0.203,0.265 -0.083,0.144 -0.133,0.304 -0.191,0.46 -0.031,0.085 -0.08,0.162 -0.104,0.25 -0.067,0.249 -0.103,0.51 -0.103,0.776 v 38.979 l -29.706,17.103 v -76.255 c 0,-0.265 -0.036,-0.526 -0.103,-0.776 -0.024,-0.088 -0.073,-0.165 -0.104,-0.25 -0.058,-0.157 -0.108,-0.316 -0.191,-0.46 -0.056,-0.097 -0.137,-0.176 -0.203,-0.265 -0.087,-0.117 -0.161,-0.242 -0.265,-0.345 -0.085,-0.086 -0.194,-0.148 -0.29,-0.223 -0.109,-0.085 -0.206,-0.182 -0.327,-0.252 0,0 -0.001,0 -0.002,-0.001 -0.001,0 -0.001,-10e-4 -0.002,-0.002 L 181.713,78.096 c -0.917,-0.528 -2.047,-0.528 -2.964,0 l -35.647,20.523 c -0.001,0 -0.001,0.001 -0.002,0.002 -0.001,0 -0.002,0 -0.002,0.001 -0.121,0.07 -0.219,0.167 -0.327,0.252 -0.096,0.075 -0.205,0.138 -0.29,0.223 -0.103,0.103 -0.178,0.228 -0.265,0.345 -0.066,0.089 -0.147,0.169 -0.203,0.265 -0.083,0.144 -0.133,0.304 -0.191,0.46 -0.031,0.085 -0.08,0.162 -0.104,0.25 -0.067,0.249 -0.103,0.51 -0.103,0.776 v 122.09 c 0,1.063 0.568,2.044 1.489,2.575 l 71.293,41.045 c 0.156,0.089 0.324,0.143 0.49,0.202 0.078,0.028 0.15,0.074 0.23,0.095 0.249,0.066 0.506,0.1 0.762,0.1 0.256,0 0.512,-0.033 0.762,-0.1 0.069,-0.018 0.132,-0.059 0.2,-0.083 0.176,-0.061 0.354,-0.119 0.519,-0.214 l 71.293,-41.045 c 0.921,-0.53 1.489,-1.512 1.489,-2.575 V 184.304 L 324.3,164.638 c 0.921,-0.53 1.489,-1.512 1.489,-2.575 v -40.697 c -0.003,-0.264 -0.038,-0.525 -0.106,-0.774 z m -109.813,99.275 -29.648,-16.779 31.136,-17.926 c 0,0 0,0 0.001,-0.001 l 34.164,-19.669 29.674,17.084 -21.772,12.428 z m 68.329,-76.259 v 33.841 l -12.475,-7.182 -17.231,-9.92 v -33.841 l 12.475,7.182 z m 2.97,-39.335 29.693,17.095 -29.693,17.095 -29.693,-17.095 z m -91.494,86.516 -12.475,7.182 v -74.538 l 17.231,-9.92 12.475,-7.182 v 74.537 z m -15.446,-106.691 29.693,17.095 -29.693,17.095 -29.693,-17.095 z m -32.676,22.234 12.475,7.182 17.231,9.92 v 79.676 c 0,0.002 0.001,0.003 0.001,0.005 0,0.002 -0.001,0.004 -0.001,0.006 0,0.114 0.032,0.221 0.045,0.333 0.017,0.146 0.021,0.294 0.059,0.434 0.001,0.002 0.001,0.005 0.002,0.007 0.032,0.117 0.094,0.222 0.14,0.334 0.051,0.124 0.088,0.255 0.156,0.371 0.001,0.003 0.002,0.006 0.004,0.009 0.061,0.105 0.149,0.191 0.222,0.288 0.081,0.105 0.149,0.22 0.244,0.314 0.003,0.003 0.005,0.007 0.008,0.01 0.084,0.083 0.19,0.142 0.284,0.215 0.106,0.083 0.202,0.178 0.32,0.247 0.004,0.002 0.009,0.003 0.013,0.005 0.004,0.002 0.007,0.006 0.011,0.008 l 34.139,19.321 v 34.175 L 147.554,221.567 V 106.332 Z m 136.646,115.235 -65.352,37.625 V 225.01 l 48.399,-27.628 16.953,-9.677 z m 35.646,-61.22 -29.706,17.102 v -33.841 l 17.231,-9.92 12.475,-7.182 z"
   id="path335" />
</g>
</svg>
