<?xml version="1.0" encoding="UTF-8"?>
<svg xmlns="http://www.w3.org/2000/svg" width="122" height="32" viewBox="0 0 122 32" fill="none"><g clip-path="url(#clip0_13_45)"><path d="M108.513 4.96189C109.265 4.96189 109.885 4.72685 110.383 4.24807C110.88 3.778 111.125 3.18605 111.125 2.48093C111.125 1.77582 110.88 1.18387 110.383 0.705091C109.885 0.235015 109.265 -0.00872803 108.513 -0.00872803C107.762 -0.00872803 107.142 0.22631 106.644 0.705091C106.146 1.18387 105.902 1.76712 105.902 2.48093C105.902 3.19475 106.146 3.778 106.644 4.24807C107.142 4.72685 107.762 4.96189 108.513 4.96189Z" fill="#01FCFE"/><path d="M122 10.4461V6.96407H118.235V2.82043H113.955V6.96407H106.356V10.4461V23.7388H110.61V10.4461H113.955V18.5332C113.955 22.0065 115.746 23.7388 119.336 23.7388H122.009V20.1697H120.035C119.388 20.1697 118.925 20.0479 118.655 19.7954C118.384 19.543 118.244 19.1338 118.244 18.568V10.4461H122.009H122Z" fill="#01FCFE"/><path d="M1.06565 10.7943C1.77317 9.48856 2.76021 8.47876 4.0093 7.76494C5.26712 7.05112 6.69964 6.69421 8.32433 6.69421C10.412 6.69421 12.1415 7.21652 13.5041 8.25243C14.8755 9.28834 15.7839 10.7508 16.2556 12.6311H11.6698C11.4252 11.9086 11.0147 11.334 10.4382 10.9249C9.86167 10.5071 9.14541 10.3068 8.29812 10.3068C7.08398 10.3068 6.12314 10.7421 5.41562 11.6213C4.70809 12.5005 4.34996 13.7454 4.34996 15.3645C4.34996 16.9837 4.70809 18.1937 5.41562 19.0729C6.12314 19.9521 7.08398 20.3874 8.29812 20.3874C10.0189 20.3874 11.1457 19.6213 11.6698 18.0892H16.2556C15.7926 19.9086 14.8668 21.3536 13.4954 22.4156C12.1153 23.4864 10.3945 24.0174 8.33306 24.0174C6.70838 24.0174 5.27586 23.6605 4.01804 22.9467C2.76021 22.2328 1.78191 21.223 1.07438 19.9173C0.366858 18.6115 0.00872803 17.0968 0.00872803 15.3645C0.00872803 13.6322 0.366858 12.1088 1.07438 10.8117L1.06565 10.7943Z" fill="#01FCFE"/><path d="M20.9637 22.938C19.671 22.2241 18.649 21.2056 17.9065 19.8999C17.164 18.5854 16.7972 17.0707 16.7972 15.3558C16.7972 13.6409 17.1728 12.1262 17.9327 10.8117C18.6926 9.49726 19.7321 8.48747 21.0423 7.76494C22.3613 7.05112 23.8288 6.69421 25.4447 6.69421C27.0607 6.69421 28.5369 7.05112 29.8471 7.76494C31.166 8.47876 32.2055 9.49726 32.9567 10.8117C33.7166 12.1262 34.0922 13.6409 34.0922 15.3558C34.0922 17.0707 33.6992 18.5854 32.9218 19.8999C32.1444 21.2143 31.0874 22.2241 29.7597 22.938C28.432 23.6518 26.9471 24.0087 25.3049 24.0087C23.6628 24.0087 22.2303 23.6518 20.9288 22.938H20.9637ZM27.5149 19.7606C28.1962 19.3863 28.7378 18.8291 29.1396 18.0805C29.5414 17.3319 29.751 16.4265 29.751 15.3558C29.751 13.7628 29.3317 12.5353 28.4932 11.6735C27.6546 10.8117 26.6239 10.3852 25.4098 10.3852C24.1956 10.3852 23.1736 10.8117 22.3526 11.6735C21.5315 12.5353 21.1209 13.7628 21.1209 15.3558C21.1209 16.9488 21.5227 18.1763 22.3176 19.0381C23.1212 19.8999 24.1257 20.3264 25.3399 20.3264C26.1086 20.3264 26.8336 20.1436 27.5149 19.7693V19.7606Z" fill="#01FCFE"/><path d="M35.6558 10.777C36.3371 9.46249 37.263 8.45269 38.4335 7.74758C39.6039 7.04246 40.9142 6.68555 42.3554 6.68555C43.4473 6.68555 44.4955 6.92059 45.4825 7.39937C46.4783 7.87816 47.2644 8.50492 47.8497 9.28838V1.33191H52.1647V23.7389H47.8497V21.2579C47.3256 22.0849 46.5831 22.7552 45.631 23.2601C44.6789 23.765 43.5783 24.0174 42.3205 24.0174C40.9054 24.0174 39.6039 23.6518 38.4335 22.9293C37.2543 22.1981 36.3284 21.1796 35.6558 19.8564C34.9744 18.5332 34.6338 17.0185 34.6338 15.2949C34.6338 13.5713 34.9744 12.1001 35.6558 10.7857V10.777ZM47.2732 12.7008C46.8713 11.9609 46.3211 11.395 45.631 11.0033C44.9409 10.6116 44.2072 10.4113 43.4123 10.4113C42.6175 10.4113 41.8925 10.6029 41.2286 10.9859C40.556 11.3689 40.0145 11.926 39.6039 12.666C39.1847 13.4059 38.9838 14.2764 38.9838 15.2862C38.9838 16.296 39.1934 17.1752 39.6039 17.9326C40.0145 18.6899 40.5648 19.2731 41.2461 19.6736C41.9274 20.074 42.6524 20.2829 43.4211 20.2829C44.1897 20.2829 44.9497 20.0827 45.6397 19.691C46.3298 19.2993 46.8713 18.7334 47.2819 17.9935C47.6837 17.2536 47.8933 16.3743 47.8933 15.3471C47.8933 14.3199 47.6924 13.432 47.2819 12.7008H47.2732Z" fill="#01FCFE"/><path d="M55.0996 4.2568C54.6017 3.78672 54.3571 3.19478 54.3571 2.48966C54.3571 1.78455 54.6017 1.1926 55.0996 0.713819C55.5887 0.235038 56.2176 0 56.9601 0C57.7026 0 58.3315 0.235038 58.8294 0.713819C59.3273 1.1926 59.5718 1.77584 59.5718 2.48966C59.5718 3.20348 59.3273 3.78672 58.8294 4.2568C58.3315 4.73558 57.7113 4.97062 56.9601 4.97062C56.2089 4.97062 55.5887 4.73558 55.0908 4.2568H55.0996ZM59.0652 6.96409V23.7388H54.8113V6.96409H59.0652Z" fill="#01FCFE"/><path d="M75.9235 8.61807C77.1552 9.88032 77.7753 11.6387 77.7753 13.9021V23.7389H73.5215V14.4766C73.5215 13.1447 73.1895 12.1175 72.5169 11.4037C71.8444 10.6899 70.9359 10.333 69.7829 10.333C68.6299 10.333 67.6778 10.6899 67.0052 11.4037C66.3239 12.1175 65.9833 13.1447 65.9833 14.4766V23.7389H61.7294V6.9641H65.9833V9.05333C66.551 8.33081 67.276 7.75627 68.1582 7.34713C69.0405 6.93799 70.01 6.72906 71.0582 6.72906C73.0672 6.72906 74.6832 7.35583 75.9235 8.61807Z" fill="#01FCFE"/><path d="M100.163 0L99.2194 4.22198L95.28 20.6398L92.4499 32H96.1535L98.3198 23.4168L99.6213 17.9761L102.006 8.05223L103.133 3.36017L103.866 0H100.163Z" fill="#01FCFE"/><path d="M92.4499 6.96407V9.35798C91.8996 8.57452 91.1572 7.93034 90.2051 7.43415C89.253 6.93796 88.1524 6.69421 86.8945 6.69421C85.4533 6.69421 84.1518 7.05112 82.9901 7.75624C81.8283 8.46135 80.9024 9.47115 80.2298 10.7856C79.5485 12.1001 79.2079 13.5974 79.2079 15.2949C79.2079 16.9924 79.5485 18.5332 80.2298 19.8563C80.9112 21.1795 81.8371 22.2067 83.0075 22.9293C84.178 23.6518 85.4795 24.0174 86.8945 24.0174C88.1262 24.0174 89.2268 23.7562 90.1876 23.2339C90.7816 22.9118 91.2882 22.5288 91.7249 22.1023L95.3586 6.98148H92.4499V6.96407ZM91.8385 18.0022C91.4367 18.7421 90.8864 19.3079 90.1963 19.6997C89.5063 20.0914 88.7725 20.2916 87.9777 20.2916C87.1828 20.2916 86.484 20.0914 85.8027 19.6822C85.1214 19.2818 84.5798 18.6986 84.1605 17.9412C83.7413 17.1839 83.5404 16.3047 83.5404 15.2949C83.5404 14.2851 83.75 13.4146 84.1605 12.6746C84.5711 11.9347 85.1214 11.3776 85.7852 10.9945C86.4578 10.6115 87.1828 10.42 87.9689 10.42C88.7551 10.42 89.4975 10.6202 90.1876 11.012C90.8776 11.4037 91.4192 11.9695 91.8297 12.7094C92.2316 13.4494 92.4412 14.3286 92.4412 15.3558C92.4412 16.383 92.2403 17.2709 91.8297 18.0022H91.8385Z" fill="#01FCFE"/><path d="M88.2834 28.309C87.2265 28.309 86.3355 28.0827 85.5931 27.63C84.8506 27.1773 84.3702 26.568 84.1518 25.8019H79.9329C80.1338 27.7171 80.9985 29.2318 82.5271 30.346C84.0557 31.4603 86.0123 32.0087 88.4057 32.0087C88.7376 32.0087 89.0433 31.9826 89.3578 31.9565L90.3448 27.8476C89.7509 28.1436 89.0695 28.309 88.2921 28.309H88.2834Z" fill="#01FCFE"/></g><defs><clipPath id="clip0_13_45"><rect width="122" height="32" fill="white"/></clipPath></defs></svg>